<svg aria-hidden="true" style="position: absolute; width: 0; height: 0; overflow: hidden;" version="1.1" xmlns="http://www.w3.org/2000/svg" xmlns:xlink="http://www.w3.org/1999/xlink">
<defs>
<symbol id="icon-bag-icon" viewBox="0 0 32 32">
<path d="M1.459 7.626l-1.459 24.374h32l-1.459-24.374h-29.082zM3.819 10.188h24.364l1.152 19.248h-26.669l1.152-19.248h0.001z"></path>
<path d="M21.592 7.789c0-2.894-2.29-5.249-5.105-5.249s-5.105 2.355-5.105 5.249h-2.47c0-4.295 3.398-7.789 7.575-7.789s7.575 3.494 7.575 7.789h-2.47z"></path>
</symbol>
<symbol id="icon-search-icon" viewBox="0 0 32 32">
<path d="M18.877 20.206l10.99 11.794 2.133-1.612-10.99-11.794-2.133 1.612z"></path>
<path d="M12.68 2.798c-5.279 0-9.572 4.074-9.572 9.081s4.293 9.081 9.572 9.081c5.279 0 9.572-4.074 9.572-9.081s-4.293-9.081-9.572-9.081zM12.68 23.761c-6.993 0-12.68-5.33-12.68-11.881s5.689-11.881 12.68-11.881c6.993 0 12.681 5.33 12.681 11.881s-5.689 11.881-12.681 11.881z"></path>
</symbol>
<symbol id="arrowdown-icon" viewBox="0 0 40 32">
<path d="M36.002 0l-16.009 21.334-15.993-21.312-4 5.331 19.995 26.646 20.005-26.666-3.998-5.334z"></path>
</symbol>
<symbol id="icon-user-icon" viewBox="0 0 32 32">
<path d="M16 2.41c-3.133 0-5.683 2.651-5.683 5.91s2.55 5.911 5.683 5.911c3.132 0 5.683-2.651 5.683-5.911 0-3.259-2.55-5.91-5.683-5.91zM16 16.64c-4.411 0-8-3.732-8-8.32s3.589-8.32 8-8.32c4.411 0 8 3.732 8 8.32s-3.589 8.32-8 8.32z"></path>
<path d="M32 32h-2.462v-1.829c-0.003-0.346-0.144-8.534-8.615-8.534h-9.846c-8.384 0-8.609 8.204-8.615 8.552v1.81h-2.462v-1.829c0.060-3.807 2.452-10.971 11.077-10.971h9.846c8.762 0 11.077 7.177 11.077 10.971v1.83z"></path>
</symbol>
<symbol id="icon-facebook-icon" viewBox="0 0 22 32">
<path d="M22.259 0.001v5.613h-5.398c-1.055 0-2.14 0.74-2.14 1.28v3.682h7.511c-0.298 2.834-0.922 5.415-0.922 5.415h-6.614v16.008h-9.872v-16.008h-4.825v-5.397h4.825v-4.405c0-0.793-0.243-6.19 10.114-6.19l7.32 0.001z"></path>
</symbol>
<symbol id="icon-instagram-icon" viewBox="0 0 32 32">
<path d="M16 0c-4.345 0-4.891 0.019-6.598 0.096-1.702 0.076-2.865 0.348-3.884 0.744-1.053 0.407-1.945 0.955-2.833 1.845-0.891 0.891-1.437 1.783-1.847 2.833-0.395 1.019-0.666 2.18-0.742 3.883-0.079 1.706-0.096 2.253-0.096 6.597 0 4.347 0.019 4.891 0.096 6.597 0.076 1.702 0.346 2.867 0.742 3.883 0.41 1.053 0.956 1.945 1.847 2.833 0.888 0.891 1.781 1.437 2.833 1.847 1.019 0.395 2.18 0.666 3.884 0.744 1.706 0.076 2.253 0.095 6.598 0.095s4.891-0.019 6.598-0.095c1.702-0.079 2.865-0.348 3.884-0.744 1.053-0.41 1.945-0.956 2.833-1.847 0.891-0.888 1.437-1.781 1.847-2.833 0.395-1.016 0.666-2.18 0.742-3.883 0.079-1.706 0.096-2.251 0.096-6.597 0-4.345-0.019-4.891-0.096-6.597-0.076-1.702-0.346-2.865-0.742-3.883-0.41-1.051-0.956-1.944-1.847-2.833-0.888-0.891-1.781-1.437-2.833-1.845-1.019-0.395-2.18-0.668-3.884-0.744-1.706-0.079-2.254-0.096-6.598-0.096zM16 2.884c4.273 0 4.777 0.016 6.466 0.092 1.561 0.072 2.407 0.331 2.972 0.55 0.746 0.291 1.278 0.637 1.839 1.198s0.907 1.092 1.198 1.84c0.219 0.562 0.481 1.41 0.55 2.971 0.079 1.688 0.092 2.194 0.092 6.466s-0.015 4.78-0.092 6.465c-0.071 1.561-0.331 2.407-0.55 2.972-0.291 0.746-0.637 1.28-1.198 1.839-0.561 0.561-1.092 0.907-1.839 1.198-0.565 0.219-1.411 0.481-2.972 0.55-1.688 0.079-2.194 0.095-6.466 0.095s-4.78-0.016-6.466-0.095c-1.561-0.071-2.407-0.331-2.972-0.55-0.746-0.291-1.278-0.637-1.839-1.198-0.561-0.558-0.907-1.092-1.198-1.839-0.219-0.565-0.481-1.411-0.55-2.972-0.079-1.686-0.092-2.194-0.092-6.465s0.015-4.777 0.092-6.465c0.071-1.561 0.331-2.407 0.55-2.971 0.291-0.748 0.637-1.279 1.198-1.84s1.092-0.907 1.839-1.198c0.565-0.219 1.411-0.478 2.972-0.55 1.688-0.076 2.194-0.092 6.466-0.092z"></path>
<path d="M16 21.334c-2.945 0-5.334-2.389-5.334-5.334s2.389-5.333 5.334-5.333c2.945 0 5.334 2.387 5.334 5.333s-2.389 5.334-5.334 5.334zM16 7.784c-4.538 0-8.215 3.68-8.215 8.215 0 4.538 3.677 8.218 8.215 8.218s8.215-3.68 8.215-8.218c0-4.537-3.677-8.215-8.215-8.215z"></path>
<path d="M26.462 7.46c0 1.059-0.86 1.921-1.921 1.921-1.060 0-1.919-0.861-1.919-1.921s0.86-1.921 1.919-1.921c1.061 0 1.921 0.861 1.921 1.921z"></path>
</symbol>
<symbol id="icon-pinterest-icon" viewBox="0 0 32 32">
<path d="M16.001 0c-8.838 0-16.001 7.162-16.001 15.999 0 6.553 3.94 12.177 9.578 14.655-0.046-1.117-0.011-2.46 0.277-3.675 0.307-1.297 2.059-8.717 2.059-8.717s-0.511-1.023-0.511-2.533c0-2.371 1.374-4.14 3.086-4.14 1.455 0 2.156 1.090 2.156 2.401 0 1.466-0.932 3.649-1.412 5.679-0.4 1.697 0.851 3.082 2.525 3.082 3.032 0 5.072-3.894 5.072-8.509 0-3.506-2.36-6.13-6.657-6.13-4.853 0-7.878 3.618-7.878 7.659 0 1.396 0.413 2.379 1.058 3.141 0.296 0.35 0.334 0.49 0.231 0.893-0.080 0.292-0.254 1.004-0.327 1.282-0.107 0.407-0.435 0.551-0.801 0.403-2.237-0.913-3.278-3.362-3.278-6.116 0-4.545 3.833-9.994 11.437-9.994 6.111 0 10.129 4.421 10.129 9.166 0 6.277-3.491 10.968-8.633 10.968-1.727 0-3.351-0.936-3.907-1.996 0 0-0.931 3.686-1.127 4.399-0.338 1.232-1.004 2.467-1.609 3.429 1.439 0.423 2.959 0.655 4.536 0.655 8.836 0 15.997-7.163 15.997-15.999 0-8.839-7.161-15.999-15.997-15.999l-0.001-0.001z"></path>
</symbol>
</defs>
</svg>
